<?xml version="1.0" encoding="utf-8"?>
<!-- Generator: Adobe Illustrator 24.0.0, SVG Export Plug-In . SVG Version: 6.00 Build 0)  -->
<svg version="1.2" baseProfile="tiny" id="Layer_1" xmlns="http://www.w3.org/2000/svg" xmlns:xlink="http://www.w3.org/1999/xlink"
	 x="0px" y="0px" viewBox="0 0 1000 200" xml:space="preserve">
<g>
	<g>
		<path fill="#003595" d="M116.36,102.05l13.63-56.94h16.23v96.89h-14.69l1.53-63.42l-11.03,45.88h-11.33L99.66,78.57l1.53,63.42
			h-14.7V45.1h16.23L116.36,102.05z"/>
		<path fill="#003595" d="M156.53,141.91V45.02h36.44v11.74h-21.74v29.42h19.29v11.74h-19.29v32.25h21.74v11.74H156.53z"/>
		<g>
			<path fill="#FF5F00" d="M207.63,111.83c-0.02,0-0.03,0-0.04-0.01v49.37H71.19V26.75h136.4v47.49c3.36,0.41,6.73,0.74,10.08,1.21
				v-58.3H61.1v153.64h156.57v-58.19C214.32,112.48,210.97,112.23,207.63,111.83z"/>
		</g>
		<g>
			<rect x="42.28" y="30.8" fill="#FF5F00" width="21.06" height="12.23"/>
			<rect x="24.96" y="34.2" fill="#FF5F00" width="21.06" height="5.43"/>
		</g>
		<g>
			<rect x="42.28" y="52.55" fill="#FF5F00" width="21.06" height="12.22"/>
			<rect x="24.96" y="55.95" fill="#FF5F00" width="21.06" height="5.43"/>
		</g>
		<g>
			<rect x="42.28" y="74.29" fill="#FF5F00" width="21.06" height="12.23"/>
			<rect x="24.96" y="77.69" fill="#FF5F00" width="21.06" height="5.43"/>
		</g>
		<g>
			<rect x="42.28" y="96.03" fill="#FF5F00" width="21.06" height="12.23"/>
			<rect x="24.96" y="99.43" fill="#FF5F00" width="21.06" height="5.43"/>
		</g>
		<g>
			<rect x="42.28" y="117.77" fill="#FF5F00" width="21.06" height="12.23"/>
			<rect x="24.96" y="121.17" fill="#FF5F00" width="21.06" height="5.43"/>
		</g>
		<g>
			<rect x="42.28" y="139.51" fill="#FF5F00" width="21.06" height="12.23"/>
			<rect x="24.96" y="142.91" fill="#FF5F00" width="21.06" height="5.43"/>
		</g>
		<path fill="#FF5F00" d="M202.74,69.56v19.54h19.54V69.56H202.74z M216.53,83.36h-8.05v-8.05h8.05V83.36z"/>
		<path fill="#FF5F00" d="M202.74,96.58v19.54h19.54V96.58H202.74z M216.53,110.37h-8.05v-8.05h8.05V110.37z"/>
		<path fill="#FF5F00" d="M277.92,83.27l13.95-66.12h16.6v112.5h-15.04L295,56.01l-11.28,53.27h-11.6l-11.28-53.27l1.57,73.64
			h-15.04V17.15h16.61L277.92,83.27z"/>
		<path fill="#FF5F00" d="M322.57,129.65V17.15h15.04v112.5H322.57z"/>
		<path fill="#FF5F00" d="M366.75,129.65h-15.04V17.15h15.04V129.65z M401.38,129.65h-15.04l-18.8-54.99v-0.94l15.67-56.56h13.79
			l-15.82,55.94L401.38,129.65z"/>
		<path fill="#FF5F00" d="M409.99,17.15h29.45c11.49,0,17.23,6.43,17.23,19.27v27.73c0,9.82-2.98,16.04-8.93,18.64l10.5,46.85
			h-14.25l-9.87-45.44h-9.09v45.44h-15.04V17.15z M425.03,71.37h9.87c4.49,0,6.74-2.72,6.74-8.15V38.93c0-5.43-2.25-8.15-6.74-8.15
			h-9.87V71.37z"/>
		<path fill="#FF5F00" d="M486.6,129.65c-12.12,0-18.17-6.37-18.17-19.11V36.42c0-12.84,6.01-19.27,18.02-19.27h14.41
			c12.01,0,18.02,6.43,18.02,19.27v74.11c0,12.74-6.06,19.11-18.18,19.11H486.6z M490.21,116.02h7.68c3.96,0,5.95-2.19,5.95-6.58
			V37.37c0-4.39-2.25-6.58-6.74-6.58h-7.05c-4.39,0-6.58,2.19-6.58,6.58v72.07C483.47,113.83,485.72,116.02,490.21,116.02z"/>
		<path fill="#003595" d="M532.19,129.65V17.15h37.29v13.64h-22.25v34.15h19.74v13.63h-19.74v37.45h22.25v13.63H532.19z"/>
		<path fill="#003595" d="M616.01,129.65h-35.72V17.15h15.04v98.86h20.68V129.65z"/>
		<path fill="#003595" d="M624.63,129.65V17.15h37.29v13.64h-22.25v34.15h19.74v13.63h-19.74v37.45h22.25v13.63H624.63z"/>
		<path fill="#003595" d="M717.69,103.33v7.21c0,12.74-6.01,19.11-18.02,19.11h-9.71c-12.02,0-18.02-6.37-18.02-19.11V36.27
			c0-12.74,6.01-19.12,18.02-19.12h9.71c12.01,0,18.02,6.38,18.02,19.12v12.69h-15.04V37.37c0-4.39-2.25-6.58-6.73-6.58h-2.98
			c-3.97,0-5.95,2.19-5.95,6.58v72.07c0,4.39,1.98,6.58,5.95,6.58h3.76c3.97,0,5.95-2.19,5.95-6.58v-6.11H717.69z"/>
		<path fill="#003595" d="M753.41,30.79v98.86h-15.04V30.79h-14.42V17.15h43.87v13.64H753.41z"/>
		<path fill="#003595" d="M776.43,17.15h29.45c11.49,0,17.23,6.43,17.23,19.27v27.73c0,9.82-2.97,16.04-8.93,18.64l10.5,46.85
			h-14.26l-9.87-45.44h-9.09v45.44h-15.04V17.15z M791.47,71.37h9.87c4.49,0,6.74-2.72,6.74-8.15V38.93c0-5.43-2.25-8.15-6.74-8.15
			h-9.87V71.37z"/>
		<path fill="#003595" d="M853.04,129.65c-12.12,0-18.17-6.37-18.17-19.11V36.42c0-12.84,6.01-19.27,18.02-19.27h14.41
			c12.01,0,18.02,6.43,18.02,19.27v74.11c0,12.74-6.06,19.11-18.18,19.11H853.04z M856.65,116.02h7.68c3.96,0,5.95-2.19,5.95-6.58
			V37.37c0-4.39-2.25-6.58-6.74-6.58h-7.05c-4.39,0-6.58,2.19-6.58,6.58v72.07C849.91,113.83,852.16,116.02,856.65,116.02z"/>
		<path fill="#003595" d="M929.81,71.52V17.15h15.04v112.5h-15.04v-22.41l-16.14-51.23v73.64h-15.04V17.15h15.04L929.81,71.52z"/>
	</g>
	<g>
		<path fill="#003595" d="M252.1,167.99c0.86,0.18,1.69,0.26,2.51,0.26c1.15,0,2.07-0.19,2.76-0.56c0.69-0.38,1.03-0.89,1.03-1.55
			c0-0.58-0.22-1.05-0.65-1.42c-0.43-0.37-1.14-0.68-2.14-0.94l-1.32-0.34c-3.2-0.82-4.8-2.55-4.8-5.21c0-1.01,0.3-1.88,0.91-2.61
			c0.61-0.73,1.43-1.28,2.46-1.67c1.03-0.38,2.18-0.58,3.44-0.58c1.47,0,2.91,0.22,4.3,0.67v3.03c-0.64-0.24-1.34-0.42-2.1-0.55
			c-0.76-0.13-1.51-0.19-2.24-0.19c-1.09,0-1.91,0.17-2.47,0.52c-0.56,0.34-0.84,0.8-0.84,1.38c0,0.56,0.22,1.02,0.65,1.37
			c0.43,0.35,1.12,0.65,2.06,0.89l1.32,0.34c1.65,0.4,2.87,0.99,3.66,1.78c0.79,0.78,1.19,1.85,1.19,3.19
			c0,1.09-0.29,2.04-0.88,2.84c-0.58,0.81-1.4,1.43-2.46,1.86c-1.06,0.43-2.27,0.65-3.65,0.65c-1.79,0-3.53-0.3-5.21-0.89v-3.07
			C250.42,167.55,251.24,167.81,252.1,167.99z"/>
		<path fill="#003595" d="M302.45,156.56h-8.33v4.15h7.78v2.83h-7.78v4.44h8.33v2.81h-11.81v-17.04h11.81V156.56z"/>
		<path fill="#003595" d="M343.65,156.56h-8.33v4.15h7.78v2.83h-7.78v4.44h8.33v2.81h-11.81v-17.04h11.81V156.56z"/>
		<path fill="#003595" d="M373.03,170.79v-17.04h3.48v7.27l6.77-7.27h4.25l-7.59,8.19l7.97,8.86h-4.44l-6.96-7.66v7.66H373.03z"/>
		<path fill="#003595" d="M415.6,153.75h3.48v17.04h-3.48V153.75z"/>
		<path fill="#003595" d="M452.19,158.82v11.98h-3.48v-17.04h3.48l7.68,11.98v-11.98h3.48v17.04h-3.48L452.19,158.82z"/>
		<path fill="#003595" d="M493.33,157.43c0.88-1.34,2.09-2.34,3.64-3.02c1.54-0.68,3.3-1.02,5.27-1.02c0.66,0,1.41,0.05,2.27,0.16
			c0.86,0.1,1.49,0.22,1.91,0.35v3c-0.37-0.14-0.96-0.27-1.76-0.38c-0.81-0.11-1.53-0.17-2.17-0.17c-1.31,0-2.49,0.22-3.53,0.66
			c-1.04,0.44-1.86,1.1-2.45,1.99c-0.59,0.89-0.89,1.98-0.89,3.28c0,1.3,0.26,2.39,0.79,3.29s1.24,1.57,2.12,2.02
			s1.86,0.67,2.92,0.67c0.86,0,1.62-0.09,2.26-0.26v-6.12h3.46v8.19c-1.7,0.74-3.63,1.1-5.79,1.1c-1.78,0-3.37-0.34-4.79-1.02
			c-1.42-0.68-2.53-1.69-3.35-3.03c-0.82-1.34-1.22-2.95-1.22-4.84S492.45,158.77,493.33,157.43z"/>
		<path fill="#003595" d="M567.25,153.75h3.48v17.04h-3.48V153.75z"/>
		<path fill="#003595" d="M603.84,158.82v11.98h-3.48v-17.04h3.48l7.68,11.98v-11.98H615v17.04h-3.48L603.84,158.82z"/>
		<path fill="#003595" d="M648.11,158.82v11.98h-3.48v-17.04h3.48l7.68,11.98v-11.98h3.48v17.04h-3.48L648.11,158.82z"/>
		<path fill="#003595" d="M692.19,170.12c-1.31-0.69-2.35-1.7-3.11-3.04c-0.76-1.34-1.14-2.94-1.14-4.81c0-1.89,0.38-3.5,1.14-4.84
			c0.76-1.34,1.8-2.34,3.11-3.02c1.31-0.68,2.78-1.02,4.39-1.02c1.62,0,3.08,0.34,4.39,1.02c1.31,0.68,2.35,1.69,3.11,3.02
			c0.76,1.34,1.14,2.95,1.14,4.84c0,1.87-0.38,3.48-1.14,4.81s-1.8,2.35-3.11,3.04c-1.31,0.69-2.78,1.03-4.39,1.03
			C694.96,171.16,693.5,170.81,692.19,170.12z M699.14,167.65c0.76-0.46,1.36-1.15,1.8-2.07c0.44-0.91,0.66-2.02,0.66-3.31
			c0-1.3-0.22-2.4-0.66-3.31c-0.44-0.91-1.04-1.6-1.8-2.05c-0.76-0.46-1.61-0.68-2.56-0.68s-1.8,0.23-2.56,0.68
			c-0.76,0.46-1.37,1.14-1.81,2.05s-0.67,2.02-0.67,3.31c0,1.3,0.22,2.4,0.67,3.31c0.45,0.91,1.05,1.6,1.81,2.07
			c0.76,0.46,1.61,0.7,2.56,0.7S698.38,168.11,699.14,167.65z"/>
		<path fill="#003595" d="M734.97,153.75l4.49,12.27l4.46-12.27h3.65l-6.41,17.04h-3.34l-6.41-17.04H734.97z"/>
		<path fill="#003595" d="M778.42,153.75h3.34l6.41,17.04h-3.65l-1.51-4.18h-5.91l-1.54,4.18h-3.55L778.42,153.75z M781.97,163.83
			l-1.92-5.31l-1.95,5.31H781.97z"/>
		<path fill="#003595" d="M817.72,170.79v-14.24h-5.43v-2.81h14.31v2.81h-5.43v14.24H817.72z"/>
		<path fill="#003595" d="M854.64,153.75h3.48v17.04h-3.48V153.75z"/>
		<path fill="#003595" d="M891.04,170.12c-1.31-0.69-2.35-1.7-3.11-3.04c-0.76-1.34-1.14-2.94-1.14-4.81c0-1.89,0.38-3.5,1.14-4.84
			c0.76-1.34,1.8-2.34,3.11-3.02c1.31-0.68,2.78-1.02,4.39-1.02c1.62,0,3.08,0.34,4.39,1.02c1.31,0.68,2.35,1.69,3.11,3.02
			c0.76,1.34,1.14,2.95,1.14,4.84c0,1.87-0.38,3.48-1.14,4.81s-1.8,2.35-3.11,3.04c-1.31,0.69-2.78,1.03-4.39,1.03
			C893.82,171.16,892.35,170.81,891.04,170.12z M897.99,167.65c0.76-0.46,1.36-1.15,1.8-2.07c0.44-0.91,0.66-2.02,0.66-3.31
			c0-1.3-0.22-2.4-0.66-3.31c-0.44-0.91-1.04-1.6-1.8-2.05c-0.76-0.46-1.61-0.68-2.56-0.68s-1.8,0.23-2.56,0.68
			c-0.76,0.46-1.37,1.14-1.81,2.05s-0.67,2.02-0.67,3.31c0,1.3,0.22,2.4,0.67,3.31c0.45,0.91,1.05,1.6,1.81,2.07
			c0.76,0.46,1.61,0.7,2.56,0.7S897.23,168.11,897.99,167.65z"/>
		<path fill="#003595" d="M936.22,158.82v11.98h-3.48v-17.04h3.48l7.68,11.98v-11.98h3.48v17.04h-3.48L936.22,158.82z"/>
	</g>
</g>
</svg>
