<svg width="1042" height="811" viewBox="0 0 1042 811" fill="none" xmlns="http://www.w3.org/2000/svg">
    <rect width="1042" height="811" fill="white"/>
    <line x1="422" y1="120.758" x2="758" y2="120.758" stroke="#FF6E05" stroke-width="20"/>
    <line x1="353" y1="421.728" x2="689" y2="421.728" stroke="#FF6E05" stroke-width="25"/>
    <line x1="342" y1="508.574" x2="678" y2="508.574" stroke="#FF6E05" stroke-width="25"/>
    <path d="M395 136.613H448" stroke="#FF6E05" stroke-width="15"/>
    <path d="M741 298.594H783" stroke="#FF6E05" stroke-width="15"/>
    <path d="M759 241.998H796" stroke="#FF6E05" stroke-width="15"/>
    <path d="M783 181.499H817" stroke="#FF6E05" stroke-width="15"/>
    <path d="M259 278.102L330 278.102" stroke="#FF6E05" stroke-width="15"/>
    <path d="M276 320.061L340 320.061" stroke="#FF6E05" stroke-width="15"/>
    <path d="M245 193.208L308 193.208" stroke="#FF6E05" stroke-width="15"/>
    <path d="M250 233.216L314 233.216" stroke="#FF6E05" stroke-width="15"/>
    <path d="M286 370.802H340" stroke="#FF6E05" stroke-width="15"/>
    <path d="M724.779 379.195L778.385 176.29" stroke="#FF6E05" stroke-width="20"/>
    <path d="M743 125.002C759.196 117.705 802.232 112.315 775.393 185.402" stroke="#FF6E05" stroke-width="20"/>
    <path d="M649 509.034C691.167 509.034 701.5 503.337 708 552.945" stroke="#FF6E05" stroke-width="25"/>
    <path d="M359 421.543C273.458 421.543 292.538 514.994 351.732 509.096" stroke="#FF6E05" stroke-width="25"/>
    <line x1="171" y1="120.758" x2="267" y2="120.758" stroke="#FF6E05" stroke-width="20"/>
    <path d="M353.17 425.313L307.287 170.532" stroke="#FF6E05" stroke-width="20"/>
    <path d="M251 121.629C259.543 130.186 299.558 93.1079 309 182.475" stroke="#FF6E05" stroke-width="20"/>
    <path d="M726 130.758H760V161.007H726V130.758Z" fill="white"/>
    <path d="M246 130.758H280V161.007H246V130.758Z" fill="white"/>
    <path d="M400 515.034C418.39 515.034 434.5 531.035 434.5 552.299C434.5 573.563 418.39 589.564 400 589.564C381.61 589.564 365.5 573.563 365.5 552.299C365.5 531.035 381.61 515.034 400 515.034Z" fill="white" stroke="#FF6D05" stroke-width="25"/>
    <path d="M641.5 515.034C660.288 515.034 676.5 531.163 676.5 552.299C676.5 573.435 660.287 589.564 641.5 589.564C622.713 589.564 606.5 573.435 606.5 552.299C606.5 531.163 622.712 515.034 641.5 515.034Z" fill="white" stroke="#FF6D05" stroke-width="25"/>
    <path d="M703 354.907H776C785.113 354.907 792.5 362.295 792.5 371.407V431.672C792.5 440.785 785.113 448.172 776 448.172H703C693.887 448.172 686.5 440.785 686.5 431.672V371.407C686.5 362.295 693.887 354.907 703 354.907Z" fill="white" stroke="#FF6E05" stroke-width="17"/>
    <path d="M701.477 382.033H711.906L722.922 408.908H723.391L734.406 382.033H744.836V422.033H736.633V395.998H736.301L725.949 421.837H720.363L710.012 395.9H709.68V422.033H701.477V382.033ZM750.154 422.033V382.033H777.107V389.005H758.611V398.537H775.72V405.509H758.611V415.06H777.185V422.033H750.154Z" fill="#00389C"/>
    <path d="M399.068 254.165V184.347H446.114V196.518H413.83V213.154H443.693V225.324H413.83V241.995H446.25V254.165H399.068ZM454.969 184.347H473.174L492.401 231.256H493.219L512.447 184.347H530.651V254.165H516.333V208.722H515.754L497.685 253.824H487.935L469.867 208.552H469.288V254.165H454.969V184.347ZM539.933 254.165V184.347H567.479C572.774 184.347 577.285 185.358 581.013 187.381C584.74 189.381 587.581 192.165 589.535 195.733C591.513 199.279 592.501 203.37 592.501 208.006C592.501 212.643 591.501 216.733 589.501 220.279C587.501 223.824 584.604 226.586 580.808 228.563C577.035 230.54 572.467 231.529 567.104 231.529H549.547V219.699H564.717C567.558 219.699 569.899 219.211 571.74 218.233C573.604 217.233 574.99 215.858 575.899 214.108C576.831 212.336 577.297 210.302 577.297 208.006C577.297 205.688 576.831 203.665 575.899 201.938C574.99 200.188 573.604 198.836 571.74 197.881C569.876 196.904 567.513 196.415 564.649 196.415H554.695V254.165H539.933ZM596.55 196.518V184.347H653.891V196.518H632.516V254.165H617.925V196.518H596.55ZM656.364 184.347H672.898L688.818 214.415H689.5L705.42 184.347H721.954L696.489 229.483V254.165H681.829V229.483L656.364 184.347ZM460.67 324.79H445.739C445.466 322.858 444.909 321.143 444.068 319.643C443.227 318.12 442.148 316.824 440.83 315.756C439.511 314.688 437.989 313.87 436.261 313.302C434.557 312.733 432.705 312.449 430.705 312.449C427.091 312.449 423.943 313.347 421.261 315.143C418.58 316.915 416.5 319.506 415.023 322.915C413.545 326.302 412.807 330.415 412.807 335.256C412.807 340.233 413.545 344.415 415.023 347.802C416.523 351.188 418.614 353.745 421.295 355.472C423.977 357.199 427.08 358.063 430.602 358.063C432.58 358.063 434.409 357.802 436.091 357.279C437.795 356.756 439.307 355.995 440.625 354.995C441.943 353.972 443.034 352.733 443.898 351.279C444.784 349.824 445.398 348.165 445.739 346.302L460.67 346.37C460.284 349.574 459.318 352.665 457.773 355.643C456.25 358.597 454.193 361.245 451.602 363.586C449.034 365.904 445.966 367.745 442.398 369.108C438.852 370.449 434.841 371.12 430.364 371.12C424.136 371.12 418.568 369.711 413.659 366.893C408.773 364.074 404.909 359.995 402.068 354.654C399.25 349.313 397.841 342.847 397.841 335.256C397.841 327.643 399.273 321.165 402.136 315.824C405 310.483 408.886 306.415 413.795 303.62C418.705 300.802 424.227 299.393 430.364 299.393C434.409 299.393 438.159 299.961 441.614 301.097C445.091 302.233 448.17 303.893 450.852 306.074C453.534 308.233 455.716 310.881 457.398 314.018C459.102 317.154 460.193 320.745 460.67 324.79ZM479.097 370.165H463.279L487.381 300.347H506.404L530.472 370.165H514.654L497.165 316.302H496.62L479.097 370.165ZM478.109 342.722H515.472V354.245H478.109V342.722ZM535.996 370.165V300.347H563.541C568.814 300.347 573.314 301.29 577.041 303.177C580.791 305.04 583.643 307.688 585.598 311.12C587.575 314.529 588.564 318.54 588.564 323.154C588.564 327.79 587.564 331.779 585.564 335.12C583.564 338.438 580.666 340.983 576.871 342.756C573.098 344.529 568.53 345.415 563.166 345.415H544.723V333.552H560.78C563.598 333.552 565.939 333.165 567.803 332.393C569.666 331.62 571.053 330.461 571.962 328.915C572.893 327.37 573.359 325.449 573.359 323.154C573.359 320.836 572.893 318.881 571.962 317.29C571.053 315.699 569.655 314.495 567.768 313.677C565.905 312.836 563.553 312.415 560.712 312.415H550.757V370.165H535.996ZM573.7 338.393L591.053 370.165H574.757L557.78 338.393H573.7ZM593.457 312.518V300.347H650.798V312.518H629.423V370.165H614.832V312.518H593.457Z" fill="#00389C"/>
    <path d="M63.0341 680.266V645.357H70.4148V674.181H85.3807V680.266H63.0341ZM100.522 680.778C97.8739 680.778 95.5841 680.215 93.6523 679.09C91.7319 677.954 90.2489 676.374 89.2035 674.352C88.158 672.317 87.6353 669.96 87.6353 667.278C87.6353 664.573 88.158 662.21 89.2035 660.187C90.2489 658.153 91.7319 656.573 93.6523 655.448C95.5841 654.312 97.8739 653.744 100.522 653.744C103.169 653.744 105.453 654.312 107.374 655.448C109.306 656.573 110.794 658.153 111.84 660.187C112.885 662.21 113.408 664.573 113.408 667.278C113.408 669.96 112.885 672.317 111.84 674.352C110.794 676.374 109.306 677.954 107.374 679.09C105.453 680.215 103.169 680.778 100.522 680.778ZM100.556 675.153C101.76 675.153 102.766 674.812 103.573 674.13C104.38 673.437 104.988 672.494 105.397 671.3C105.817 670.107 106.027 668.749 106.027 667.227C106.027 665.704 105.817 664.346 105.397 663.153C104.988 661.96 104.38 661.016 103.573 660.323C102.766 659.63 101.76 659.283 100.556 659.283C99.3398 659.283 98.3171 659.63 97.4876 660.323C96.6694 661.016 96.0501 661.96 95.6296 663.153C95.2205 664.346 95.016 665.704 95.016 667.227C95.016 668.749 95.2205 670.107 95.6296 671.3C96.0501 672.494 96.6694 673.437 97.4876 674.13C98.3171 674.812 99.3398 675.153 100.556 675.153ZM128.519 680.778C125.871 680.778 123.582 680.215 121.65 679.09C119.729 677.954 118.246 676.374 117.201 674.352C116.156 672.317 115.633 669.96 115.633 667.278C115.633 664.573 116.156 662.21 117.201 660.187C118.246 658.153 119.729 656.573 121.65 655.448C123.582 654.312 125.871 653.744 128.519 653.744C131.167 653.744 133.451 654.312 135.371 655.448C137.303 656.573 138.792 658.153 139.837 660.187C140.883 662.21 141.406 664.573 141.406 667.278C141.406 669.96 140.883 672.317 139.837 674.352C138.792 676.374 137.303 677.954 135.371 679.09C133.451 680.215 131.167 680.778 128.519 680.778ZM128.553 675.153C129.758 675.153 130.763 674.812 131.57 674.13C132.377 673.437 132.985 672.494 133.394 671.3C133.815 670.107 134.025 668.749 134.025 667.227C134.025 665.704 133.815 664.346 133.394 663.153C132.985 661.96 132.377 661.016 131.57 660.323C130.763 659.63 129.758 659.283 128.553 659.283C127.337 659.283 126.315 659.63 125.485 660.323C124.667 661.016 124.048 661.96 123.627 663.153C123.218 664.346 123.013 665.704 123.013 667.227C123.013 668.749 123.218 670.107 123.627 671.3C124.048 672.494 124.667 673.437 125.485 674.13C126.315 674.812 127.337 675.153 128.553 675.153ZM151.267 672.732L151.284 664.022H152.341L160.727 654.085H169.062L157.795 667.244H156.073L151.267 672.732ZM144.687 680.266V645.357H151.948V680.266H144.687ZM161.051 680.266L153.346 668.863L158.187 663.732L169.556 680.266H161.051ZM192.969 661.55L186.321 661.96C186.207 661.391 185.963 660.88 185.588 660.425C185.213 659.96 184.719 659.59 184.105 659.317C183.503 659.033 182.781 658.891 181.94 658.891C180.815 658.891 179.866 659.13 179.094 659.607C178.321 660.073 177.935 660.698 177.935 661.482C177.935 662.107 178.185 662.636 178.685 663.067C179.185 663.499 180.043 663.846 181.258 664.107L185.997 665.062C188.543 665.585 190.44 666.425 191.69 667.585C192.94 668.744 193.565 670.266 193.565 672.153C193.565 673.869 193.06 675.374 192.048 676.67C191.048 677.965 189.673 678.977 187.923 679.704C186.185 680.42 184.179 680.778 181.906 680.778C178.44 680.778 175.679 680.056 173.622 678.613C171.577 677.158 170.378 675.181 170.026 672.681L177.168 672.306C177.383 673.363 177.906 674.17 178.736 674.727C179.565 675.272 180.628 675.545 181.923 675.545C183.196 675.545 184.219 675.3 184.991 674.812C185.776 674.312 186.173 673.67 186.185 672.886C186.173 672.227 185.895 671.687 185.349 671.266C184.804 670.835 183.963 670.505 182.827 670.278L178.293 669.374C175.736 668.863 173.832 667.977 172.582 666.715C171.344 665.454 170.724 663.846 170.724 661.891C170.724 660.21 171.179 658.761 172.088 657.545C173.008 656.329 174.298 655.391 175.957 654.732C177.628 654.073 179.582 653.744 181.821 653.744C185.128 653.744 187.73 654.442 189.628 655.84C191.537 657.238 192.651 659.141 192.969 661.55ZM213.628 645.357V680.266H206.367V645.357H213.628ZM218.005 680.266V654.085H225.267V680.266H218.005ZM221.653 650.71C220.573 650.71 219.647 650.352 218.875 649.636C218.113 648.908 217.732 648.039 217.732 647.028C217.732 646.028 218.113 645.17 218.875 644.454C219.647 643.727 220.573 643.363 221.653 643.363C222.732 643.363 223.653 643.727 224.414 644.454C225.187 645.17 225.573 646.028 225.573 647.028C225.573 648.039 225.187 648.908 224.414 649.636C223.653 650.352 222.732 650.71 221.653 650.71ZM236.223 672.732L236.24 664.022H237.297L245.683 654.085H254.018L242.751 667.244H241.03L236.223 672.732ZM229.643 680.266V645.357H236.905V680.266H229.643ZM246.007 680.266L238.302 668.863L243.143 663.732L254.513 680.266H246.007ZM266.995 680.778C264.301 680.778 261.983 680.232 260.04 679.141C258.108 678.039 256.62 676.482 255.574 674.471C254.529 672.448 254.006 670.056 254.006 667.295C254.006 664.602 254.529 662.238 255.574 660.204C256.62 658.17 258.091 656.585 259.989 655.448C261.898 654.312 264.137 653.744 266.705 653.744C268.432 653.744 270.04 654.022 271.529 654.579C273.029 655.124 274.335 655.948 275.449 657.05C276.574 658.153 277.449 659.539 278.074 661.21C278.699 662.869 279.012 664.812 279.012 667.039V669.033H256.904V664.533H272.176C272.176 663.488 271.949 662.562 271.495 661.755C271.04 660.948 270.409 660.317 269.602 659.863C268.807 659.397 267.881 659.164 266.824 659.164C265.722 659.164 264.745 659.42 263.892 659.931C263.051 660.431 262.392 661.107 261.915 661.96C261.438 662.8 261.193 663.738 261.182 664.772V669.05C261.182 670.346 261.421 671.465 261.898 672.408C262.387 673.352 263.074 674.079 263.96 674.59C264.847 675.102 265.898 675.357 267.114 675.357C267.921 675.357 268.659 675.244 269.33 675.016C270 674.789 270.574 674.448 271.051 673.994C271.529 673.539 271.892 672.982 272.142 672.323L278.858 672.766C278.517 674.38 277.818 675.789 276.762 676.994C275.716 678.187 274.364 679.119 272.705 679.789C271.057 680.448 269.154 680.778 266.995 680.778ZM296.463 690.085C295.542 690.085 294.678 690.011 293.872 689.863C293.076 689.727 292.417 689.55 291.894 689.335L293.531 683.914C294.383 684.175 295.15 684.317 295.832 684.34C296.525 684.363 297.122 684.204 297.622 683.863C298.133 683.522 298.548 682.942 298.866 682.124L299.292 681.016L289.9 654.085H297.536L302.957 673.312H303.23L308.701 654.085H316.389L306.213 683.096C305.724 684.505 305.059 685.732 304.218 686.778C303.389 687.835 302.338 688.647 301.065 689.215C299.792 689.795 298.258 690.085 296.463 690.085ZM329.65 680.778C327.003 680.778 324.713 680.215 322.781 679.09C320.861 677.954 319.378 676.374 318.332 674.352C317.287 672.317 316.764 669.96 316.764 667.278C316.764 664.573 317.287 662.21 318.332 660.187C319.378 658.153 320.861 656.573 322.781 655.448C324.713 654.312 327.003 653.744 329.65 653.744C332.298 653.744 334.582 654.312 336.503 655.448C338.434 656.573 339.923 658.153 340.969 660.187C342.014 662.21 342.537 664.573 342.537 667.278C342.537 669.96 342.014 672.317 340.969 674.352C339.923 676.374 338.434 677.954 336.503 679.09C334.582 680.215 332.298 680.778 329.65 680.778ZM329.684 675.153C330.889 675.153 331.895 674.812 332.702 674.13C333.508 673.437 334.116 672.494 334.525 671.3C334.946 670.107 335.156 668.749 335.156 667.227C335.156 665.704 334.946 664.346 334.525 663.153C334.116 661.96 333.508 661.016 332.702 660.323C331.895 659.63 330.889 659.283 329.684 659.283C328.469 659.283 327.446 659.63 326.616 660.323C325.798 661.016 325.179 661.96 324.758 663.153C324.349 664.346 324.145 665.704 324.145 667.227C324.145 668.749 324.349 670.107 324.758 671.3C325.179 672.494 325.798 673.437 326.616 674.13C327.446 674.812 328.469 675.153 329.684 675.153ZM362.608 669.119V654.085H369.869V680.266H362.898V675.511H362.625C362.034 677.045 361.051 678.278 359.676 679.21C358.313 680.141 356.648 680.607 354.682 680.607C352.932 680.607 351.392 680.21 350.063 679.414C348.733 678.619 347.693 677.488 346.943 676.022C346.205 674.556 345.83 672.8 345.818 670.755V654.085H353.08V669.46C353.091 671.005 353.506 672.227 354.324 673.124C355.142 674.022 356.239 674.471 357.614 674.471C358.489 674.471 359.307 674.272 360.068 673.874C360.83 673.465 361.443 672.863 361.909 672.067C362.387 671.272 362.619 670.289 362.608 669.119ZM391.168 665.13V680.266H383.907V645.357H390.964V658.704H391.271C391.862 657.158 392.816 655.948 394.134 655.073C395.453 654.187 397.106 653.744 399.095 653.744C400.913 653.744 402.498 654.141 403.85 654.937C405.214 655.721 406.271 656.852 407.021 658.329C407.782 659.795 408.157 661.55 408.146 663.596V680.266H400.884V664.891C400.896 663.278 400.487 662.022 399.657 661.124C398.839 660.227 397.691 659.778 396.214 659.778C395.225 659.778 394.35 659.988 393.589 660.408C392.839 660.829 392.248 661.442 391.816 662.249C391.396 663.045 391.18 664.005 391.168 665.13ZM419.886 680.761C418.216 680.761 416.727 680.471 415.42 679.891C414.113 679.3 413.079 678.431 412.318 677.283C411.568 676.124 411.193 674.681 411.193 672.954C411.193 671.499 411.46 670.278 411.994 669.289C412.528 668.3 413.255 667.505 414.176 666.903C415.096 666.3 416.142 665.846 417.312 665.539C418.494 665.232 419.733 665.016 421.028 664.891C422.551 664.732 423.778 664.585 424.71 664.448C425.642 664.3 426.318 664.085 426.738 663.8C427.159 663.516 427.369 663.096 427.369 662.539V662.437C427.369 661.357 427.028 660.522 426.346 659.931C425.676 659.34 424.721 659.045 423.483 659.045C422.176 659.045 421.136 659.335 420.363 659.914C419.591 660.482 419.079 661.198 418.829 662.062L412.113 661.516C412.454 659.925 413.125 658.55 414.125 657.391C415.125 656.221 416.415 655.323 417.994 654.698C419.585 654.062 421.426 653.744 423.517 653.744C424.971 653.744 426.363 653.914 427.693 654.255C429.034 654.596 430.221 655.124 431.255 655.84C432.301 656.556 433.125 657.477 433.727 658.602C434.329 659.715 434.63 661.05 434.63 662.607V680.266H427.744V676.636H427.54C427.119 677.454 426.557 678.175 425.852 678.8C425.147 679.414 424.301 679.897 423.312 680.249C422.324 680.59 421.182 680.761 419.886 680.761ZM421.966 675.749C423.034 675.749 423.977 675.539 424.795 675.119C425.613 674.687 426.255 674.107 426.721 673.38C427.187 672.653 427.42 671.829 427.42 670.908V668.13C427.193 668.278 426.88 668.414 426.483 668.539C426.096 668.653 425.659 668.761 425.17 668.863C424.682 668.954 424.193 669.039 423.704 669.119C423.216 669.187 422.772 669.249 422.375 669.306C421.522 669.431 420.778 669.63 420.142 669.903C419.505 670.175 419.011 670.545 418.659 671.011C418.307 671.465 418.13 672.033 418.13 672.715C418.13 673.704 418.488 674.46 419.204 674.982C419.932 675.494 420.852 675.749 421.966 675.749ZM462.296 654.085L453.142 680.266H444.96L435.807 654.085H443.477L448.915 672.817H449.188L454.608 654.085H462.296ZM475.66 680.778C472.966 680.778 470.648 680.232 468.705 679.141C466.773 678.039 465.285 676.482 464.239 674.471C463.194 672.448 462.671 670.056 462.671 667.295C462.671 664.602 463.194 662.238 464.239 660.204C465.285 658.17 466.756 656.585 468.654 655.448C470.563 654.312 472.802 653.744 475.37 653.744C477.097 653.744 478.705 654.022 480.194 654.579C481.694 655.124 483 655.948 484.114 657.05C485.239 658.153 486.114 659.539 486.739 661.21C487.364 662.869 487.677 664.812 487.677 667.039V669.033H465.569V664.533H480.841C480.841 663.488 480.614 662.562 480.16 661.755C479.705 660.948 479.074 660.317 478.267 659.863C477.472 659.397 476.546 659.164 475.489 659.164C474.387 659.164 473.41 659.42 472.557 659.931C471.716 660.431 471.057 661.107 470.58 661.96C470.103 662.8 469.858 663.738 469.847 664.772V669.05C469.847 670.346 470.086 671.465 470.563 672.408C471.052 673.352 471.739 674.079 472.625 674.59C473.512 675.102 474.563 675.357 475.779 675.357C476.586 675.357 477.324 675.244 477.995 675.016C478.665 674.789 479.239 674.448 479.716 673.994C480.194 673.539 480.557 672.982 480.807 672.323L487.523 672.766C487.182 674.38 486.483 675.789 485.427 676.994C484.381 678.187 483.029 679.119 481.37 679.789C479.722 680.448 477.819 680.778 475.66 680.778ZM498.237 665.13V680.266H490.975V654.085H497.896V658.704H498.202C498.782 657.181 499.754 655.977 501.117 655.09C502.481 654.192 504.134 653.744 506.077 653.744C507.896 653.744 509.481 654.141 510.833 654.937C512.185 655.732 513.237 656.869 513.987 658.346C514.737 659.812 515.112 661.562 515.112 663.596V680.266H507.85V664.891C507.862 663.289 507.452 662.039 506.623 661.141C505.793 660.232 504.651 659.778 503.197 659.778C502.22 659.778 501.356 659.988 500.606 660.408C499.867 660.829 499.288 661.442 498.867 662.249C498.458 663.045 498.248 664.005 498.237 665.13ZM525.48 645.357V649.039C525.48 650.085 525.275 651.153 524.866 652.244C524.468 653.323 523.934 654.346 523.264 655.312C522.593 656.266 521.861 657.079 521.065 657.749L517.861 655.857C518.429 654.96 518.929 653.965 519.361 652.874C519.804 651.783 520.025 650.516 520.025 649.073V645.357H525.48ZM543.693 654.085V659.539H527.926V654.085H543.693ZM531.506 647.812H538.767V672.221C538.767 672.891 538.869 673.414 539.074 673.789C539.278 674.153 539.563 674.408 539.926 674.556C540.301 674.704 540.733 674.778 541.222 674.778C541.563 674.778 541.903 674.749 542.244 674.692C542.585 674.624 542.847 674.573 543.028 674.539L544.171 679.942C543.807 680.056 543.296 680.187 542.636 680.335C541.977 680.494 541.176 680.59 540.233 680.624C538.483 680.692 536.949 680.46 535.631 679.925C534.324 679.391 533.307 678.562 532.58 677.437C531.852 676.312 531.494 674.891 531.506 673.175V647.812ZM564.119 680.761C562.448 680.761 560.96 680.471 559.653 679.891C558.346 679.3 557.312 678.431 556.55 677.283C555.8 676.124 555.425 674.681 555.425 672.954C555.425 671.499 555.693 670.278 556.227 669.289C556.761 668.3 557.488 667.505 558.408 666.903C559.329 666.3 560.374 665.846 561.545 665.539C562.727 665.232 563.965 665.016 565.261 664.891C566.783 664.732 568.011 664.585 568.943 664.448C569.874 664.3 570.55 664.085 570.971 663.8C571.391 663.516 571.602 663.096 571.602 662.539V662.437C571.602 661.357 571.261 660.522 570.579 659.931C569.908 659.34 568.954 659.045 567.715 659.045C566.408 659.045 565.369 659.335 564.596 659.914C563.823 660.482 563.312 661.198 563.062 662.062L556.346 661.516C556.687 659.925 557.357 658.55 558.357 657.391C559.357 656.221 560.647 655.323 562.227 654.698C563.818 654.062 565.658 653.744 567.749 653.744C569.204 653.744 570.596 653.914 571.925 654.255C573.266 654.596 574.454 655.124 575.488 655.84C576.533 656.556 577.357 657.477 577.96 658.602C578.562 659.715 578.863 661.05 578.863 662.607V680.266H571.977V676.636H571.772C571.352 677.454 570.789 678.175 570.085 678.8C569.38 679.414 568.533 679.897 567.545 680.249C566.556 680.59 565.414 680.761 564.119 680.761ZM566.198 675.749C567.266 675.749 568.21 675.539 569.028 675.119C569.846 674.687 570.488 674.107 570.954 673.38C571.42 672.653 571.653 671.829 571.653 670.908V668.13C571.425 668.278 571.113 668.414 570.715 668.539C570.329 668.653 569.891 668.761 569.403 668.863C568.914 668.954 568.425 669.039 567.937 669.119C567.448 669.187 567.005 669.249 566.607 669.306C565.755 669.431 565.011 669.63 564.374 669.903C563.738 670.175 563.244 670.545 562.891 671.011C562.539 671.465 562.363 672.033 562.363 672.715C562.363 673.704 562.721 674.46 563.437 674.982C564.164 675.494 565.085 675.749 566.198 675.749ZM592.704 680.692C590.716 680.692 588.914 680.181 587.301 679.158C585.699 678.124 584.426 676.607 583.483 674.607C582.551 672.596 582.085 670.13 582.085 667.21C582.085 664.21 582.568 661.715 583.534 659.727C584.5 657.727 585.784 656.232 587.386 655.244C589 654.244 590.767 653.744 592.687 653.744C594.153 653.744 595.375 653.994 596.352 654.494C597.341 654.982 598.136 655.596 598.738 656.335C599.352 657.062 599.818 657.778 600.136 658.482H600.358V645.357H607.602V680.266H600.443V676.073H600.136C599.795 676.8 599.312 677.522 598.687 678.238C598.074 678.942 597.272 679.528 596.284 679.994C595.306 680.46 594.113 680.692 592.704 680.692ZM595.005 674.914C596.176 674.914 597.164 674.596 597.971 673.96C598.789 673.312 599.414 672.408 599.846 671.249C600.289 670.09 600.511 668.732 600.511 667.175C600.511 665.619 600.295 664.266 599.863 663.119C599.431 661.971 598.806 661.085 597.988 660.46C597.17 659.835 596.176 659.522 595.005 659.522C593.812 659.522 592.806 659.846 591.988 660.494C591.17 661.141 590.551 662.039 590.13 663.187C589.71 664.335 589.5 665.664 589.5 667.175C589.5 668.698 589.71 670.045 590.13 671.215C590.562 672.374 591.181 673.283 591.988 673.942C592.806 674.59 593.812 674.914 595.005 674.914ZM621.78 680.692C619.791 680.692 617.99 680.181 616.376 679.158C614.774 678.124 613.501 676.607 612.558 674.607C611.626 672.596 611.161 670.13 611.161 667.21C611.161 664.21 611.643 661.715 612.609 659.727C613.575 657.727 614.859 656.232 616.462 655.244C618.075 654.244 619.842 653.744 621.763 653.744C623.229 653.744 624.45 653.994 625.428 654.494C626.416 654.982 627.212 655.596 627.814 656.335C628.428 657.062 628.893 657.778 629.212 658.482H629.433V645.357H636.678V680.266H629.518V676.073H629.212C628.871 676.8 628.388 677.522 627.763 678.238C627.149 678.942 626.348 679.528 625.359 679.994C624.382 680.46 623.189 680.692 621.78 680.692ZM624.081 674.914C625.251 674.914 626.24 674.596 627.047 673.96C627.865 673.312 628.49 672.408 628.922 671.249C629.365 670.09 629.587 668.732 629.587 667.175C629.587 665.619 629.371 664.266 628.939 663.119C628.507 661.971 627.882 661.085 627.064 660.46C626.246 659.835 625.251 659.522 624.081 659.522C622.888 659.522 621.882 659.846 621.064 660.494C620.246 661.141 619.626 662.039 619.206 663.187C618.786 664.335 618.575 665.664 618.575 667.175C618.575 668.698 618.786 670.045 619.206 671.215C619.638 672.374 620.257 673.283 621.064 673.942C621.882 674.59 622.888 674.914 624.081 674.914ZM653.14 680.778C650.446 680.778 648.128 680.232 646.185 679.141C644.253 678.039 642.765 676.482 641.719 674.471C640.674 672.448 640.151 670.056 640.151 667.295C640.151 664.602 640.674 662.238 641.719 660.204C642.765 658.17 644.236 656.585 646.134 655.448C648.043 654.312 650.282 653.744 652.85 653.744C654.577 653.744 656.185 654.022 657.674 654.579C659.174 655.124 660.48 655.948 661.594 657.05C662.719 658.153 663.594 659.539 664.219 661.21C664.844 662.869 665.157 664.812 665.157 667.039V669.033H643.049V664.533H658.321C658.321 663.488 658.094 662.562 657.64 661.755C657.185 660.948 656.554 660.317 655.747 659.863C654.952 659.397 654.026 659.164 652.969 659.164C651.867 659.164 650.89 659.42 650.037 659.931C649.196 660.431 648.537 661.107 648.06 661.96C647.583 662.8 647.338 663.738 647.327 664.772V669.05C647.327 670.346 647.566 671.465 648.043 672.408C648.532 673.352 649.219 674.079 650.105 674.59C650.992 675.102 652.043 675.357 653.259 675.357C654.066 675.357 654.804 675.244 655.475 675.016C656.145 674.789 656.719 674.448 657.196 673.994C657.674 673.539 658.037 672.982 658.287 672.323L665.003 672.766C664.662 674.38 663.963 675.789 662.907 676.994C661.861 678.187 660.509 679.119 658.85 679.789C657.202 680.448 655.299 680.778 653.14 680.778ZM678.103 680.692C676.114 680.692 674.313 680.181 672.7 679.158C671.097 678.124 669.825 676.607 668.881 674.607C667.95 672.596 667.484 670.13 667.484 667.21C667.484 664.21 667.967 661.715 668.932 659.727C669.898 657.727 671.182 656.232 672.785 655.244C674.398 654.244 676.165 653.744 678.086 653.744C679.552 653.744 680.773 653.994 681.751 654.494C682.739 654.982 683.535 655.596 684.137 656.335C684.751 657.062 685.217 657.778 685.535 658.482H685.756V645.357H693.001V680.266H685.842V676.073H685.535C685.194 676.8 684.711 677.522 684.086 678.238C683.472 678.942 682.671 679.528 681.682 679.994C680.705 680.46 679.512 680.692 678.103 680.692ZM680.404 674.914C681.575 674.914 682.563 674.596 683.37 673.96C684.188 673.312 684.813 672.408 685.245 671.249C685.688 670.09 685.91 668.732 685.91 667.175C685.91 665.619 685.694 664.266 685.262 663.119C684.83 661.971 684.205 661.085 683.387 660.46C682.569 659.835 681.575 659.522 680.404 659.522C679.211 659.522 678.205 659.846 677.387 660.494C676.569 661.141 675.95 662.039 675.529 663.187C675.109 664.335 674.898 665.664 674.898 667.175C674.898 668.698 675.109 670.045 675.529 671.215C675.961 672.374 676.58 673.283 677.387 673.942C678.205 674.59 679.211 674.914 680.404 674.914ZM714.666 680.761C712.996 680.761 711.507 680.471 710.2 679.891C708.893 679.3 707.859 678.431 707.098 677.283C706.348 676.124 705.973 674.681 705.973 672.954C705.973 671.499 706.24 670.278 706.774 669.289C707.308 668.3 708.035 667.505 708.956 666.903C709.876 666.3 710.922 665.846 712.092 665.539C713.274 665.232 714.513 665.016 715.808 664.891C717.331 664.732 718.558 664.585 719.49 664.448C720.422 664.3 721.098 664.085 721.518 663.8C721.939 663.516 722.149 663.096 722.149 662.539V662.437C722.149 661.357 721.808 660.522 721.126 659.931C720.456 659.34 719.501 659.045 718.263 659.045C716.956 659.045 715.916 659.335 715.143 659.914C714.371 660.482 713.859 661.198 713.609 662.062L706.893 661.516C707.234 659.925 707.905 658.55 708.905 657.391C709.905 656.221 711.195 655.323 712.774 654.698C714.365 654.062 716.206 653.744 718.297 653.744C719.751 653.744 721.143 653.914 722.473 654.255C723.814 654.596 725.001 655.124 726.035 655.84C727.081 656.556 727.905 657.477 728.507 658.602C729.109 659.715 729.41 661.05 729.41 662.607V680.266H722.524V676.636H722.32C721.899 677.454 721.337 678.175 720.632 678.8C719.927 679.414 719.081 679.897 718.092 680.249C717.104 680.59 715.962 680.761 714.666 680.761ZM716.746 675.749C717.814 675.749 718.757 675.539 719.575 675.119C720.393 674.687 721.035 674.107 721.501 673.38C721.967 672.653 722.2 671.829 722.2 670.908V668.13C721.973 668.278 721.66 668.414 721.263 668.539C720.876 668.653 720.439 668.761 719.95 668.863C719.462 668.954 718.973 669.039 718.484 669.119C717.996 669.187 717.552 669.249 717.155 669.306C716.302 669.431 715.558 669.63 714.922 669.903C714.285 670.175 713.791 670.545 713.439 671.011C713.087 671.465 712.91 672.033 712.91 672.715C712.91 673.704 713.268 674.46 713.984 674.982C714.712 675.494 715.632 675.749 716.746 675.749ZM740.865 665.13V680.266H733.604V654.085H740.524V658.704H740.831C741.411 657.181 742.382 655.977 743.746 655.09C745.11 654.192 746.763 653.744 748.706 653.744C750.524 653.744 752.11 654.141 753.462 654.937C754.814 655.732 755.865 656.869 756.615 658.346C757.365 659.812 757.74 661.562 757.74 663.596V680.266H750.479V664.891C750.49 663.289 750.081 662.039 749.252 661.141C748.422 660.232 747.28 659.778 745.826 659.778C744.848 659.778 743.985 659.988 743.235 660.408C742.496 660.829 741.916 661.442 741.496 662.249C741.087 663.045 740.877 664.005 740.865 665.13ZM765.569 690.085C764.648 690.085 763.785 690.011 762.978 689.863C762.182 689.727 761.523 689.55 761.001 689.335L762.637 683.914C763.489 684.175 764.256 684.317 764.938 684.34C765.631 684.363 766.228 684.204 766.728 683.863C767.239 683.522 767.654 682.942 767.972 682.124L768.398 681.016L759.006 654.085H766.643L772.063 673.312H772.336L777.807 654.085H785.495L775.319 683.096C774.83 684.505 774.165 685.732 773.324 686.778C772.495 687.835 771.444 688.647 770.171 689.215C768.898 689.795 767.364 690.085 765.569 690.085ZM801.697 654.085V659.539H785.93V654.085H801.697ZM789.509 647.812H796.771V672.221C796.771 672.891 796.873 673.414 797.078 673.789C797.282 674.153 797.566 674.408 797.93 674.556C798.305 674.704 798.737 674.778 799.225 674.778C799.566 674.778 799.907 674.749 800.248 674.692C800.589 674.624 800.85 674.573 801.032 674.539L802.174 679.942C801.811 680.056 801.299 680.187 800.64 680.335C799.981 680.494 799.18 680.59 798.237 680.624C796.487 680.692 794.953 680.46 793.634 679.925C792.328 679.391 791.311 678.562 790.583 677.437C789.856 676.312 789.498 674.891 789.509 673.175V647.812ZM812.811 665.13V680.266H805.55V645.357H812.606V658.704H812.913C813.504 657.158 814.459 655.948 815.777 655.073C817.095 654.187 818.748 653.744 820.737 653.744C822.555 653.744 824.14 654.141 825.493 654.937C826.856 655.721 827.913 656.852 828.663 658.329C829.425 659.795 829.8 661.55 829.788 663.596V680.266H822.527V664.891C822.538 663.278 822.129 662.022 821.3 661.124C820.481 660.227 819.334 659.778 817.856 659.778C816.868 659.778 815.993 659.988 815.231 660.408C814.481 660.829 813.89 661.442 813.459 662.249C813.038 663.045 812.822 664.005 812.811 665.13ZM834.063 680.266V654.085H841.324V680.266H834.063ZM837.71 650.71C836.631 650.71 835.705 650.352 834.932 649.636C834.171 648.908 833.79 648.039 833.79 647.028C833.79 646.028 834.171 645.17 834.932 644.454C835.705 643.727 836.631 643.363 837.71 643.363C838.79 643.363 839.71 643.727 840.472 644.454C841.245 645.17 841.631 646.028 841.631 647.028C841.631 648.039 841.245 648.908 840.472 649.636C839.71 650.352 838.79 650.71 837.71 650.71ZM852.962 665.13V680.266H845.701V654.085H852.621V658.704H852.928C853.508 657.181 854.479 655.977 855.843 655.09C857.207 654.192 858.86 653.744 860.803 653.744C862.621 653.744 864.207 654.141 865.559 654.937C866.911 655.732 867.962 656.869 868.712 658.346C869.462 659.812 869.837 661.562 869.837 663.596V680.266H862.576V664.891C862.587 663.289 862.178 662.039 861.349 661.141C860.519 660.232 859.377 659.778 857.922 659.778C856.945 659.778 856.082 659.988 855.332 660.408C854.593 660.829 854.013 661.442 853.593 662.249C853.184 663.045 852.974 664.005 852.962 665.13ZM885.916 690.63C883.563 690.63 881.546 690.306 879.865 689.658C878.194 689.022 876.865 688.153 875.876 687.05C874.887 685.948 874.245 684.71 873.95 683.335L880.666 682.431C880.87 682.954 881.194 683.442 881.637 683.897C882.08 684.352 882.666 684.715 883.393 684.988C884.132 685.272 885.029 685.414 886.086 685.414C887.666 685.414 888.967 685.028 889.99 684.255C891.024 683.494 891.541 682.215 891.541 680.42V675.63H891.234C890.916 676.357 890.438 677.045 889.802 677.692C889.166 678.34 888.347 678.869 887.347 679.278C886.347 679.687 885.154 679.891 883.768 679.891C881.802 679.891 880.012 679.437 878.399 678.528C876.796 677.607 875.518 676.204 874.563 674.317C873.62 672.42 873.149 670.022 873.149 667.124C873.149 664.158 873.632 661.681 874.597 659.692C875.563 657.704 876.847 656.215 878.45 655.227C880.063 654.238 881.83 653.744 883.751 653.744C885.217 653.744 886.444 653.994 887.433 654.494C888.421 654.982 889.217 655.596 889.819 656.335C890.433 657.062 890.904 657.778 891.234 658.482H891.507V654.085H898.717V680.522C898.717 682.749 898.171 684.613 897.08 686.113C895.99 687.613 894.478 688.738 892.546 689.488C890.626 690.249 888.416 690.63 885.916 690.63ZM886.069 674.437C887.24 674.437 888.228 674.147 889.035 673.567C889.853 672.977 890.478 672.136 890.91 671.045C891.353 669.942 891.575 668.624 891.575 667.09C891.575 665.556 891.359 664.227 890.927 663.102C890.495 661.965 889.87 661.085 889.052 660.46C888.234 659.835 887.24 659.522 886.069 659.522C884.876 659.522 883.87 659.846 883.052 660.494C882.234 661.13 881.615 662.016 881.194 663.153C880.774 664.289 880.563 665.602 880.563 667.09C880.563 668.602 880.774 669.908 881.194 671.011C881.626 672.102 882.245 672.948 883.052 673.55C883.87 674.141 884.876 674.437 886.069 674.437ZM917.208 690.085C916.287 690.085 915.423 690.011 914.617 689.863C913.821 689.727 913.162 689.55 912.639 689.335L914.276 683.914C915.128 684.175 915.895 684.317 916.577 684.34C917.27 684.363 917.867 684.204 918.367 683.863C918.878 683.522 919.293 682.942 919.611 682.124L920.037 681.016L910.645 654.085H918.281L923.702 673.312H923.975L929.446 654.085H937.134L926.958 683.096C926.469 684.505 925.804 685.732 924.963 686.778C924.134 687.835 923.083 688.647 921.81 689.215C920.537 689.795 919.003 690.085 917.208 690.085ZM950.498 680.778C947.805 680.778 945.486 680.232 943.543 679.141C941.611 678.039 940.123 676.482 939.077 674.471C938.032 672.448 937.509 670.056 937.509 667.295C937.509 664.602 938.032 662.238 939.077 660.204C940.123 658.17 941.594 656.585 943.492 655.448C945.401 654.312 947.64 653.744 950.208 653.744C951.935 653.744 953.543 654.022 955.032 654.579C956.532 655.124 957.839 655.948 958.952 657.05C960.077 658.153 960.952 659.539 961.577 661.21C962.202 662.869 962.515 664.812 962.515 667.039V669.033H940.407V664.533H955.68C955.68 663.488 955.452 662.562 954.998 661.755C954.543 660.948 953.912 660.317 953.106 659.863C952.31 659.397 951.384 659.164 950.327 659.164C949.225 659.164 948.248 659.42 947.395 659.931C946.555 660.431 945.895 661.107 945.418 661.96C944.941 662.8 944.697 663.738 944.685 664.772V669.05C944.685 670.346 944.924 671.465 945.401 672.408C945.89 673.352 946.577 674.079 947.464 674.59C948.35 675.102 949.401 675.357 950.617 675.357C951.424 675.357 952.162 675.244 952.833 675.016C953.503 674.789 954.077 674.448 954.555 673.994C955.032 673.539 955.395 672.982 955.645 672.323L962.361 672.766C962.02 674.38 961.322 675.789 960.265 676.994C959.219 678.187 957.867 679.119 956.208 679.789C954.56 680.448 952.657 680.778 950.498 680.778ZM979.74 654.085V659.539H963.972V654.085H979.74ZM967.552 647.812H974.813V672.221C974.813 672.891 974.916 673.414 975.12 673.789C975.325 674.153 975.609 674.408 975.972 674.556C976.347 674.704 976.779 674.778 977.268 674.778C977.609 674.778 977.95 674.749 978.291 674.692C978.632 674.624 978.893 674.573 979.075 674.539L980.217 679.942C979.853 680.056 979.342 680.187 978.683 680.335C978.024 680.494 977.222 680.59 976.279 680.624C974.529 680.692 972.995 680.46 971.677 679.925C970.37 679.391 969.353 678.562 968.626 677.437C967.899 676.312 967.541 674.891 967.552 673.175V647.812Z" fill="#00389C"/>
</svg>
