<?xml version="1.0" encoding="utf-8"?>
<!-- Generator: Adobe Illustrator 24.0.0, SVG Export Plug-In . SVG Version: 6.00 Build 0)  -->
<svg version="1.2" baseProfile="tiny" id="Layer_1" xmlns="http://www.w3.org/2000/svg" xmlns:xlink="http://www.w3.org/1999/xlink"
	 x="0px" y="0px" viewBox="0 0 1000 200" xml:space="preserve">
<g>
	<g>
		<path fill="#003595" d="M116.36,102.05l13.63-56.94h16.23v96.89h-14.69l1.53-63.42l-11.03,45.88h-11.33L99.66,78.57l1.53,63.42
			h-14.7V45.1h16.23L116.36,102.05z"/>
		<path fill="#003595" d="M156.53,141.91V45.02h36.44v11.74h-21.74v29.42h19.29v11.74h-19.29v32.25h21.74v11.74H156.53z"/>
		<g>
			<path fill="#FF5F00" d="M207.63,111.83c-0.02,0-0.03,0-0.04-0.01v49.37H71.19V26.75h136.4v47.49c3.36,0.41,6.73,0.74,10.08,1.21
				v-58.3H61.1v153.64h156.57v-58.19C214.32,112.48,210.97,112.23,207.63,111.83z"/>
		</g>
		<g>
			<rect x="42.28" y="30.8" fill="#FF5F00" width="21.06" height="12.23"/>
			<rect x="24.96" y="34.2" fill="#FF5F00" width="21.06" height="5.43"/>
		</g>
		<g>
			<rect x="42.28" y="52.55" fill="#FF5F00" width="21.06" height="12.22"/>
			<rect x="24.96" y="55.95" fill="#FF5F00" width="21.06" height="5.43"/>
		</g>
		<g>
			<rect x="42.28" y="74.29" fill="#FF5F00" width="21.06" height="12.23"/>
			<rect x="24.96" y="77.69" fill="#FF5F00" width="21.06" height="5.43"/>
		</g>
		<g>
			<rect x="42.28" y="96.03" fill="#FF5F00" width="21.06" height="12.23"/>
			<rect x="24.96" y="99.43" fill="#FF5F00" width="21.06" height="5.43"/>
		</g>
		<g>
			<rect x="42.28" y="117.77" fill="#FF5F00" width="21.06" height="12.23"/>
			<rect x="24.96" y="121.17" fill="#FF5F00" width="21.06" height="5.43"/>
		</g>
		<g>
			<rect x="42.28" y="139.51" fill="#FF5F00" width="21.06" height="12.23"/>
			<rect x="24.96" y="142.91" fill="#FF5F00" width="21.06" height="5.43"/>
		</g>
		<path fill="#FF5F00" d="M202.74,69.56v19.54h19.54V69.56H202.74z M216.53,83.36h-8.05v-8.05h8.05V83.36z"/>
		<path fill="#FF5F00" d="M202.74,96.58v19.54h19.54V96.58H202.74z M216.53,110.37h-8.05v-8.05h8.05V110.37z"/>

		</g>
</g>
</svg>
